<svg xmlns="http://www.w3.org/2000/svg" xmlns:xlink="http://www.w3.org/1999/xlink" width="2000" zoomAndPan="magnify" viewBox="0 0 1500 1499.999933" height="2000" preserveAspectRatio="xMidYMid meet" version="1.0"><defs><clipPath id="7ef29d7722"><path d="M 2.148438 48 L 365.828125 48 L 365.828125 1111.238281 L 2.148438 1111.238281 Z M 2.148438 48 " clip-rule="nonzero"/></clipPath><clipPath id="e965f8546e"><path d="M 365.863281 48 L 739.003906 48 L 739.003906 1111.238281 L 365.863281 1111.238281 Z M 365.863281 48 " clip-rule="nonzero"/></clipPath><clipPath id="4c9067cf4b"><path d="M 0.863281 0.519531 L 374.003906 0.519531 L 374.003906 1063.238281 L 0.863281 1063.238281 Z M 0.863281 0.519531 " clip-rule="nonzero"/></clipPath><clipPath id="30dd16beb5"><rect x="0" width="375" y="0" height="1064"/></clipPath><clipPath id="4ca8bdf961"><path d="M 69 39 L 327 39 L 327 297 L 69 297 Z M 69 39 " clip-rule="nonzero"/></clipPath><clipPath id="0647db62fe"><path d="M 268.792969 0.160156 L 365.863281 238.007812 L 128.015625 335.074219 L 30.949219 97.226562 Z M 268.792969 0.160156 " clip-rule="nonzero"/></clipPath><clipPath id="202cde6b7c"><path d="M 317.328125 119.082031 C 290.523438 53.402344 215.550781 21.890625 149.871094 48.695312 C 84.191406 75.5 52.675781 150.472656 79.480469 216.152344 C 106.285156 281.832031 181.257812 313.34375 246.9375 286.539062 C 312.617188 259.734375 344.132812 184.761719 317.328125 119.082031 Z M 317.328125 119.082031 " clip-rule="nonzero"/></clipPath><clipPath id="857a4ae23e"><path d="M 0 0 L 258 0 L 258 258 L 0 258 Z M 0 0 " clip-rule="nonzero"/></clipPath><clipPath id="6e0488d6e9"><path d="M 199.792969 -38.839844 L 296.863281 199.007812 L 59.015625 296.074219 L -38.050781 58.226562 Z M 199.792969 -38.839844 " clip-rule="nonzero"/></clipPath><clipPath id="3a673ad032"><path d="M 248.328125 80.082031 C 221.523438 14.402344 146.550781 -17.109375 80.871094 9.695312 C 15.191406 36.5 -16.324219 111.472656 10.480469 177.152344 C 37.285156 242.832031 112.257812 274.34375 177.9375 247.539062 C 243.617188 220.734375 275.132812 145.761719 248.328125 80.082031 Z M 248.328125 80.082031 " clip-rule="nonzero"/></clipPath><clipPath id="5f32520b1c"><rect x="0" width="258" y="0" height="258"/></clipPath><clipPath id="11b9af96bc"><path d="M 1042 39 L 1300 39 L 1300 297 L 1042 297 Z M 1042 39 " clip-rule="nonzero"/></clipPath><clipPath id="5de6eb0150"><path d="M 1241.386719 0.160156 L 1338.453125 238.007812 L 1100.605469 335.074219 L 1003.539062 97.226562 Z M 1241.386719 0.160156 " clip-rule="nonzero"/></clipPath><clipPath id="1e983e92ca"><path d="M 1289.917969 119.082031 C 1263.113281 53.402344 1188.140625 21.890625 1122.460938 48.695312 C 1056.78125 75.5 1025.269531 150.472656 1052.074219 216.152344 C 1078.875 281.832031 1153.851562 313.34375 1219.53125 286.539062 C 1285.207031 259.734375 1316.722656 184.761719 1289.917969 119.082031 Z M 1289.917969 119.082031 " clip-rule="nonzero"/></clipPath><clipPath id="945b010b70"><path d="M 0 0 L 258 0 L 258 258 L 0 258 Z M 0 0 " clip-rule="nonzero"/></clipPath><clipPath id="45b6464484"><path d="M 199.386719 -38.839844 L 296.453125 199.007812 L 58.605469 296.074219 L -38.460938 58.226562 Z M 199.386719 -38.839844 " clip-rule="nonzero"/></clipPath><clipPath id="bead96e1f1"><path d="M 247.917969 80.082031 C 221.113281 14.402344 146.140625 -17.109375 80.460938 9.695312 C 14.78125 36.5 -16.730469 111.472656 10.074219 177.152344 C 36.875 242.832031 111.851562 274.34375 177.53125 247.539062 C 243.207031 220.734375 274.722656 145.761719 247.917969 80.082031 Z M 247.917969 80.082031 " clip-rule="nonzero"/></clipPath><clipPath id="2e2626ae91"><rect x="0" width="258" y="0" height="258"/></clipPath><clipPath id="7798a24a7d"><path d="M 738.042969 48 L 1111.179688 48 L 1111.179688 1111.238281 L 738.042969 1111.238281 Z M 738.042969 48 " clip-rule="nonzero"/></clipPath><clipPath id="07e8247397"><path d="M 0.0429688 0.519531 L 373.179688 0.519531 L 373.179688 1063.238281 L 0.0429688 1063.238281 Z M 0.0429688 0.519531 " clip-rule="nonzero"/></clipPath><clipPath id="f89d291039"><rect x="0" width="374" y="0" height="1064"/></clipPath><clipPath id="b92847d8f5"><rect x="0" width="1420" y="0" height="1112"/></clipPath></defs><g transform="matrix(1, 0, 0, 1, 80, 95)"><g clip-path="url(#b92847d8f5)"><g clip-path="url(#7ef29d7722)"><path fill="#ffffff" d="M 262.164062 426.195312 C 298.371094 415.878906 334.386719 443.203125 334.386719 480.871094 L 334.386719 1060.566406 C 334.386719 1092.933594 304.261719 1117.148438 272.742188 1109.707031 C 117.339844 1073.097656 1.324219 933.269531 1.324219 766.84375 C 1.324219 605.71875 110.015625 469.5625 262.164062 426.195312 Z M 397.921875 395.453125 L 397.921875 1060.566406 C 397.921875 1092.933594 428.046875 1117.148438 459.566406 1109.707031 C 614.96875 1073.121094 730.984375 933.269531 730.984375 766.84375 L 730.984375 89.363281 C 730.984375 63.945312 707.78125 44.816406 682.832031 49.671875 C 520.695312 81.164062 397.921875 224.246094 397.921875 395.453125 Z M 397.921875 395.453125 " fill-opacity="1" fill-rule="nonzero"/></g><g clip-path="url(#e965f8546e)"><g transform="matrix(1, 0, 0, 1, 365, 48)"><g clip-path="url(#30dd16beb5)"><g clip-path="url(#4c9067cf4b)"><path fill="#ffffff" d="M 469.363281 378.195312 C 433.15625 367.878906 397.140625 395.203125 397.140625 432.871094 L 397.140625 1012.566406 C 397.140625 1044.933594 427.269531 1069.148438 458.785156 1061.707031 C 614.1875 1025.097656 730.203125 885.269531 730.203125 718.84375 C 730.203125 557.71875 621.511719 421.5625 469.363281 378.195312 Z M 333.609375 347.453125 L 333.609375 1012.566406 C 333.609375 1044.933594 303.480469 1069.148438 271.960938 1061.707031 C 116.558594 1025.121094 0.546875 885.269531 0.546875 718.84375 L 0.546875 41.363281 C 0.546875 15.945312 23.75 -3.183594 48.695312 1.671875 C 210.832031 33.164062 333.609375 176.246094 333.609375 347.453125 Z M 333.609375 347.453125 " fill-opacity="1" fill-rule="nonzero"/></g></g></g></g><g clip-path="url(#4ca8bdf961)"><g clip-path="url(#0647db62fe)"><g clip-path="url(#202cde6b7c)"><g transform="matrix(1, 0, 0, 1, 69, 39)"><g clip-path="url(#5f32520b1c)"><g clip-path="url(#857a4ae23e)"><g clip-path="url(#6e0488d6e9)"><g clip-path="url(#3a673ad032)"><path fill="#ffffff" d="M 199.792969 -38.839844 L 296.863281 199.007812 L 59.015625 296.074219 L -38.050781 58.226562 Z M 199.792969 -38.839844 " fill-opacity="1" fill-rule="nonzero"/></g></g></g></g></g></g></g></g><g clip-path="url(#11b9af96bc)"><g clip-path="url(#5de6eb0150)"><g clip-path="url(#1e983e92ca)"><g transform="matrix(1, 0, 0, 1, 1042, 39)"><g clip-path="url(#2e2626ae91)"><g clip-path="url(#945b010b70)"><g clip-path="url(#45b6464484)"><g clip-path="url(#bead96e1f1)"><path fill="#ffffff" d="M 199.386719 -38.839844 L 296.453125 199.007812 L 58.605469 296.074219 L -38.460938 58.226562 Z M 199.386719 -38.839844 " fill-opacity="1" fill-rule="nonzero"/></g></g></g></g></g></g></g></g><g clip-path="url(#7798a24a7d)"><g transform="matrix(1, 0, 0, 1, 738, 48)"><g clip-path="url(#f89d291039)"><g clip-path="url(#07e8247397)"><path fill="#ffffff" d="M 468.542969 378.195312 C 432.335938 367.878906 396.316406 395.203125 396.316406 432.871094 L 396.316406 1012.566406 C 396.316406 1044.933594 426.445312 1069.148438 457.964844 1061.707031 C 613.367188 1025.097656 729.382812 885.269531 729.382812 718.84375 C 729.382812 557.71875 620.691406 421.5625 468.542969 378.195312 Z M 332.785156 347.453125 L 332.785156 1012.566406 C 332.785156 1044.933594 302.660156 1069.148438 271.140625 1061.707031 C 115.738281 1025.121094 -0.277344 885.269531 -0.277344 718.84375 L -0.277344 41.363281 C -0.277344 15.945312 22.925781 -3.183594 47.871094 1.671875 C 210.011719 33.164062 332.785156 176.246094 332.785156 347.453125 Z M 332.785156 347.453125 " fill-opacity="1" fill-rule="nonzero"/></g></g></g></g></g></g></svg>